Coordinates
version=1
nRows=8
nColumns=36
inDegrees=yes

Units are S.I. units (second, meters, Newtons, ...)
If the header above contains a line with 'inDegrees', this indicates whether rotational values are in degrees (yes) or radians (no).

endheader
time	pelvis_tilt	pelvis_list	pelvis_rotation	pelvis_tx	pelvis_ty	pelvis_tz	hip_flexion_r	hip_adduction_r	hip_rotation_r	knee_angle_r	knee_angle_r_beta	ankle_angle_r	subtalar_angle_r	mtp_angle_r	hip_flexion_l	hip_adduction_l	hip_rotation_l	knee_angle_l	knee_angle_l_beta	ankle_angle_l	subtalar_angle_l	mtp_angle_l	lumbar_extension	lumbar_bending	lumbar_rotation	arm_flex_r	arm_add_r	arm_rot_r	elbow_flex_r	pro_sup_r	arm_flex_l	arm_add_l	arm_rot_l	elbow_flex_l	pro_sup_l
      0.71000000	      1.05535798	      2.06189217	     -2.78269132	      0.77434939	      0.93915939	     -0.21408429	     -6.96391801	     -2.69272192	     -1.39522519	     44.64326981	      0.77917205	      0.80158868	    -12.47907067	     -6.83934270	     20.87795060	      0.03575815	     -4.66864703	     19.85168405	      0.34647725	      1.97913930	     -4.74109794	     -6.83934270	     -7.77051821	    -21.13970329	     10.74575701	     13.94620875	     -5.70825824	     10.29493493	     54.56402349	    104.26999191	      1.02858255	    -11.76527510	    -11.94560427	     28.63967268	    100.34959787
      0.72000000	      1.34998711	      2.42959928	     -2.51463386	      0.78538800	      0.93902203	     -0.21552617	     -5.52909344	     -3.24999937	     -2.02689687	     48.43954166	      0.84542949	      0.36434672	    -14.60463118	     -6.84778324	     20.49837712	      0.60835865	     -4.34184584	     21.19153969	      0.36986214	      2.94738665	     -5.32188246	     -6.84778324	     -8.55177965	    -21.99094528	      9.81388945	     13.93134601	     -5.76266408	     10.61165305	     54.58829334	    104.23545196	      1.83323367	    -11.97327757	    -11.93147370	     28.61248663	    100.34979299
      0.73000000	      1.53152863	      2.59494250	     -2.25658560	      0.79614310	      0.93891335	     -0.21678679	     -3.98629013	     -3.47678640	     -2.43937650	     51.89357882	      0.90571381	     -0.64571815	    -17.77706141	     -6.87284522	     20.20842611	      0.91446113	     -4.10988799	     22.45635767	      0.39193738	      4.03566270	     -5.60928125	     -6.87284522	     -9.22373503	    -22.58219124	      8.92519839	     13.94196417	     -5.88793770	     11.10795099	     54.39328215	    104.07660061	      2.68111864	    -12.14681688	    -11.69507043	     28.49723946	    100.36702445
      0.74000000	      1.99468175	      2.86092826	     -2.03800974	      0.80679814	      0.93941007	     -0.21807293	     -2.78852304	     -3.93552788	     -2.95098784	     55.06205850	      0.96101421	     -0.23183567	    -19.15613100	     -6.87818074	     19.41615647	      1.35650421	     -3.95112134	     23.33735703	      0.40731372	      4.89638373	     -5.82435967	     -6.87818074	    -10.28184535	    -23.25489335	      8.00854504	     13.92474676	     -5.92827216	     11.22883345	     54.34682292	    104.04300917	      3.65170579	    -12.26991833	    -11.60754296	     28.47350526	    100.36976269
      0.75000000	      2.21275829	      2.99194218	     -1.87945797	      0.81723919	      0.93977074	     -0.21927593	     -1.27996431	     -4.20117828	     -3.29657384	     57.95898910	      1.01157519	      0.25690551	    -20.61991882	     -6.88517360	     18.79035757	      1.62464768	     -3.84814167	     24.00733145	      0.41900698	      5.98333322	     -5.93852477	     -6.88517360	    -10.97268741	    -23.70000406	      7.24764808	     13.84155712	     -6.03659670	     11.44630801	     54.15844662	    103.99495734	      4.61923862	    -12.33135449	    -11.41920353	     28.39711959	    100.38062299
      0.76000000	      2.59339152	      2.83497629	     -1.76674129	      0.82738117	      0.94079301	     -0.22030718	      0.00731022	     -4.04126784	     -3.39324489	     60.34093445	      1.05314798	      0.52692021	    -21.28538740	     -6.88783132	     17.86308299	      1.55851978	     -3.77383599	     24.41297792	      0.42608684	      6.49639634	     -5.95787927	     -6.88783132	    -11.90437216	    -23.78419325	      6.56973500	     13.84337660	     -6.13741442	     11.47735025	     53.85307810	    103.95677502	      5.65386906	    -12.22788675	    -11.26425584	     28.52791530	    100.40715128
      0.77000000	      2.57732217	      2.92926488	     -1.80520856	      0.83751298	      0.94140693	     -0.22106683	      1.84128702	     -4.17464172	     -3.38209569	     62.60311518	      1.09263048	      1.22198113	    -21.99358401	     -6.89569831	     17.30701558	      1.71639131	     -3.88769883	     24.76060216	      0.43215403	      7.87972238	     -5.84836974	     -6.89569831	    -12.15862369	    -24.19525231	      6.08103193	     13.68450038	     -6.13920351	     11.71769515	     53.37866893	    103.89207966	      6.65671986	    -12.31103768	    -10.95830721	     28.31592138	    100.42244881
      0.78000000	      2.80774459	      2.66567935	     -1.81311207	      0.84739092	      0.94285324	     -0.22179607	      3.28269250	     -3.78969788	     -3.25556766	     64.21598726	      1.12078041	      1.42314636	    -22.02861238	     -6.89838177	     16.35219608	      1.50241592	     -3.89600556	     24.80208413	      0.43287803	      8.30153392	     -5.75426983	     -6.89838177	    -12.82993476	    -24.12197908	      5.55750057	     13.60998008	     -6.17542396	     11.71055807	     52.95836325	    103.84944768	      7.65623270	    -12.19125618	    -10.77243815	     28.49028640	    100.45719237
